<svg width="25" height="25" viewBox="0 0 25 25" fill="none" xmlns="http://www.w3.org/2000/svg">
<path fill-rule="evenodd" clip-rule="evenodd" d="M1.63265 0C0.730961 0 0 0.730961 0 1.63265V22.8571C0 23.7587 0.730961 24.4897 1.63265 24.4897H22.8571C23.7587 24.4897 24.4897 23.7587 24.4897 22.8571V1.63265C24.4897 0.730961 23.7587 0 22.8571 0H1.63265ZM22.8571 2.28571H3.91835V20.5713H22.8571V2.28571Z" fill="white"/>
<path d="M20.9023 0H3.58736C1.60945 0 0 1.60945 0 3.58736V20.9023C0 22.8802 1.60945 24.4897 3.58736 24.4897H20.9023C22.8802 24.4897 24.4897 22.8802 24.4897 20.9023V3.58736C24.4897 1.60945 22.8802 0 20.9023 0ZM12.2927 18.6543C8.73204 18.6543 5.83544 15.7577 5.83544 12.197C5.83544 8.63638 8.73204 5.73977 12.2927 5.73977C15.8533 5.73977 18.7499 8.63638 18.7499 12.197C18.7499 15.7577 15.8533 18.6543 12.2927 18.6543ZM19.4674 7.17472C18.2806 7.17472 17.315 6.20912 17.315 5.0223C17.315 3.83548 18.2806 2.86989 19.4674 2.86989C20.6542 2.86989 21.6198 3.83548 21.6198 5.0223C21.6198 6.20912 20.6542 7.17472 19.4674 7.17472Z" fill="white"/>
<path d="M19.4674 4.30483C19.0715 4.30483 18.7499 4.62638 18.7499 5.0223C18.7499 5.41822 19.0715 5.73977 19.4674 5.73977C19.8633 5.73977 20.1849 5.41822 20.1849 5.0223C20.1849 4.62638 19.8633 4.30483 19.4674 4.30483Z" fill="white"/>
<path d="M12.2927 7.17472C9.52369 7.17472 7.27038 9.42803 7.27038 12.197C7.27038 14.966 9.52369 17.2193 12.2927 17.2193C15.0617 17.2193 17.315 14.966 17.315 12.197C17.315 9.42803 15.0617 7.17472 12.2927 7.17472Z" fill="white"/>
<defs>
<rect width="24.4897" height="24.4897" rx="5" fill="white"/>
</defs>
</svg>