<svg width="25" height="25" viewBox="0 0 25 25" fill="none" xmlns="http://www.w3.org/2000/svg">
<path d="M22.9292 0H1.56398C0.699903 0 0 0.699903 0 1.56225V22.9274C0 23.7898 0.699903 24.4897 1.56398 24.4897H22.9274C23.7898 24.4897 24.4897 23.7898 24.4897 22.9274V1.56225C24.4914 0.698175 23.7915 0 22.9292 0ZM20.3145 14.9226C20.7621 15.3789 21.7333 16.1444 21.557 16.9238C21.3946 17.6393 20.3266 17.3783 19.2897 17.4198C18.1059 17.4699 17.4043 17.4959 16.6923 16.9238C16.357 16.6525 16.16 16.3311 15.8386 15.9716C15.5465 15.6467 15.1784 15.0643 14.6772 15.0868C13.7769 15.1317 14.0585 16.3864 13.7388 17.2418C8.7341 18.0299 6.72426 14.9382 4.95117 11.9381C4.09227 10.4847 2.85146 7.36367 2.85146 7.36367L6.39072 7.35158C6.39072 7.35158 7.52612 9.41672 7.82682 9.94899C8.08259 10.4018 8.36427 10.7612 8.65461 11.1656C8.89828 11.5009 9.28366 12.1576 9.70533 12.104C10.3914 12.0159 10.5158 9.35451 10.0907 8.46278C9.92134 8.1016 9.51523 7.97544 9.09529 7.85274C9.23699 6.95756 13.0649 6.77092 13.6835 7.46563C14.5822 8.47488 13.0614 11.2849 14.2919 12.104C16.02 11.1985 17.4959 7.40688 17.4959 7.40688L21.64 7.4328C21.64 7.4328 20.9919 9.48239 20.3127 10.3914C19.917 10.9237 18.6036 12.1092 18.6554 12.9888C18.6969 13.6853 19.7649 14.3627 20.3145 14.9226Z" fill="white"/>
<defs>
<rect width="24.4897" height="24.4897" fill="white"/>
</defs>
</svg>