<svg width="25" height="25" viewBox="0 0 25 25" fill="none" xmlns="http://www.w3.org/2000/svg">
<path d="M23.1379 2.77016e-08H1.35064C0.604619 0.000448449 -0.000149446 0.605516 2.77016e-08 1.35184V23.1391C0.000448449 23.8851 0.605516 24.4898 1.35184 24.4897H13.0819V15.0191H9.90111V11.3121H13.0819V8.5841C13.0819 5.4205 15.0132 3.69857 17.8353 3.69857C19.187 3.69857 20.3485 3.79931 20.6871 3.8443V7.1508H18.7411C17.2057 7.1508 16.9084 7.88038 16.9084 8.95121V11.3121H20.5795L20.1012 15.0191H16.9084V24.4897H23.1379C23.8843 24.4898 24.4895 23.8849 24.4897 23.1385C24.4897 23.1383 24.4897 23.1382 24.4897 23.1379V1.35064C24.4894 0.604619 23.8842 -0.000149446 23.1379 2.77016e-08Z" fill="white"/>
</svg>