<svg width="25" height="25" viewBox="0 0 25 25" fill="none" xmlns="http://www.w3.org/2000/svg">
<path d="M11.0241 0.0300293C4.94547 0.0300293 0 4.96197 0 11.024C0 17.0861 4.94552 22.0181 11.0241 22.0181C17.1027 22.0181 22.0482 17.0861 22.0482 11.024C22.0482 4.96197 17.1027 0.0300293 11.0241 0.0300293ZM11.0241 20.2108C5.94186 20.2108 1.80723 16.0894 1.80723 11.024C1.80723 5.95831 5.94186 1.83721 11.0241 1.83721C16.1063 1.83721 20.241 5.95831 20.241 11.024C20.241 16.0894 16.1064 20.2108 11.0241 20.2108Z" fill="#3F3133"/>
<path d="M24.7338 23.4255L18.8001 17.5219C18.4462 17.1701 17.8741 17.1716 17.522 17.5252C17.1702 17.8791 17.1717 18.4511 17.5254 18.8033L23.4591 24.7069C23.6356 24.8822 23.8658 24.9698 24.0965 24.9698C24.3287 24.9698 24.5606 24.881 24.7371 24.7036C25.089 24.3496 25.0874 23.7776 24.7338 23.4255Z" fill="#3F3133"/>
</svg>