<svg width="21" height="27" viewBox="0 0 21 27" fill="none" xmlns="http://www.w3.org/2000/svg">
<path d="M13.7751 6.05835H16.4585C17.4181 6.05835 18.2357 6.77446 18.3634 7.7259L18.3634 7.72602L20.5301 23.976L20.5301 23.9763C20.6024 24.5252 20.4353 25.0788 20.0702 25.4948C19.7052 25.9117 19.1787 26.15 18.6252 26.15H2.37515C1.82164 26.15 1.29499 25.9117 0.930969 25.4946M13.7751 6.05835L4.54182 6.20835C3.65849 6.20835 2.90328 6.86876 2.78661 7.74585L2.63793 7.72602L2.63792 7.72607L0.471267 23.976C0.471265 23.976 0.471262 23.976 0.471259 23.976C0.397798 24.5254 0.566292 25.0779 0.930969 25.4946M13.7751 6.05835V4.125C13.7751 2.31924 12.3058 0.85 10.5001 0.85C8.6943 0.85 7.22506 2.31924 7.22506 4.125V6.05835H13.7751ZM0.930969 25.4946C0.930991 25.4946 0.931013 25.4946 0.931034 25.4946L1.0439 25.3959L0.930882 25.4945C0.930911 25.4945 0.93094 25.4945 0.930969 25.4946ZM4.54182 7.40002H7.22506V8.8125C7.22506 9.18284 7.52555 9.48333 7.89589 9.48333C8.26623 9.48333 8.56672 9.18284 8.56672 8.8125V7.40002H12.4334V8.8125C12.4334 9.18284 12.7339 9.48333 13.1042 9.48333C13.4746 9.48333 13.7751 9.18284 13.7751 8.8125V7.40002H16.4585C16.7468 7.40002 16.9937 7.6162 17.0317 7.90207L17.0317 7.90213L19.1983 24.1521C19.2208 24.321 19.1722 24.4829 19.0603 24.6105L19.0599 24.6109C18.9489 24.7385 18.7955 24.8084 18.6252 24.8084H2.37515C2.20526 24.8084 2.05259 24.7388 1.94024 24.6108C1.82792 24.4817 1.77955 24.3207 1.80197 24.1521L3.96863 7.90213L3.96864 7.90207C4.00666 7.61607 4.25258 7.40002 4.54182 7.40002ZM12.4334 6.05835H8.56672V4.125C8.56672 3.05888 9.43394 2.19167 10.5001 2.19167C11.5662 2.19167 12.4334 3.05888 12.4334 4.125V6.05835Z" fill="#3F3133" stroke="#3F3133" stroke-width="0.3"/>
</svg>