<svg width="112" height="184" viewBox="0 0 112 184" fill="none" xmlns="http://www.w3.org/2000/svg">
<path d="M35.0986 85.6035C34.862 84.9717 34.7042 84.419 34.4676 83.7872C31.7071 76.9958 29.0254 70.2833 26.2648 63.4919C22.8732 55.0421 20.1916 46.4344 18.3775 37.5108C16.6423 29.14 15.6958 20.7692 16.2479 12.2404C16.4845 8.8447 16.9577 5.44899 17.3521 2.05328C17.3521 1.81637 17.431 1.50049 17.5887 1.34255C17.6676 1.26358 17.9831 1.26358 18.062 1.34255C18.2197 1.57946 18.4563 1.89535 18.5352 2.21123C20.1127 9.87131 23.031 17.2155 25.4761 24.6387C27.8423 31.9039 30.2084 39.0902 32.1014 46.5134C33.4423 51.8044 34.3887 57.1743 35.0986 62.6232C35.493 65.7031 36.0451 68.7039 36.4394 71.7837C36.9127 75.8112 37.3859 79.9177 37.7803 83.9451C37.938 85.6035 38.1747 87.1829 38.4113 88.8413C38.6479 90.1048 38.8845 91.4473 38.6479 92.7898C38.569 93.4215 38.7268 94.1322 38.7268 94.764C38.7268 95.0799 38.7268 95.3958 38.6479 95.7116C38.569 96.0275 38.0958 96.1855 37.8592 96.0275C37.6225 95.8696 37.4648 95.7116 37.307 95.4747C32.969 90.7365 28.631 85.9194 24.293 81.1812C19.1662 75.4953 14.5915 69.4147 10.9634 62.6232C6.78309 54.8842 4.10141 46.7503 2.3662 38.1426C1.02535 31.1932 0.47324 24.1649 0.788733 17.1365C0.788733 16.5838 0.552111 15.7941 1.34084 15.7151C1.97183 15.6361 2.0507 16.4258 2.12958 16.8996C3.54929 21.322 4.81126 25.8232 6.23098 30.2456C8.91267 38.5374 11.9099 46.6713 16.0901 54.3314C18.1408 58.122 20.3493 61.8335 22.5578 65.6241C24.8451 69.5726 27.1324 73.6001 29.4986 77.5486C31.1549 80.3915 32.8901 83.1554 34.6253 85.9194C34.862 85.7614 34.9408 85.6825 35.0986 85.6035ZM37.3859 88.8413C37.3859 88.2095 37.3859 87.8936 37.3859 87.6567C37.2282 86.6301 37.0704 85.6035 36.9915 84.4979C36.5183 80.3125 36.124 76.1271 35.5718 71.9417C35.1775 68.8619 34.7042 65.861 34.231 62.7812C33.4422 57.4112 32.5747 51.9623 31.2338 46.6713C29.262 38.9323 26.738 31.2722 24.2141 23.6911C22.1634 17.6104 19.8761 11.5297 18.2986 5.29105C18.2197 4.97517 18.062 4.73827 17.8254 4.18548C17.3521 7.18633 17.1155 9.87131 16.9577 12.5563C16.4845 20.8481 17.431 28.982 19.0873 37.037C20.9014 45.9606 23.5831 54.5683 26.9746 63.0181C30.2084 71.231 33.5211 79.3649 36.7549 87.5777C36.9127 87.9726 37.0704 88.2095 37.3859 88.8413ZM37.7803 94.5271C37.7803 93.8953 37.7803 93.6584 37.7803 93.3425C37.6225 92.158 37.0704 91.1314 36.4394 90.1048C34.0732 86.4722 31.707 82.8396 29.4986 79.049C25.7915 72.8104 22.1634 66.4138 18.4563 60.1752C14.907 54.2524 11.9887 48.0138 9.46479 41.5383C6.7831 34.5889 4.4169 27.4026 2.28732 20.2164C2.12957 19.7426 2.0507 19.2687 1.49859 18.558C1.49859 19.4267 1.49859 19.9795 1.49859 20.5323C1.41971 26.376 2.0507 32.0619 3.07605 37.7477C4.81126 46.9082 7.88732 55.6739 12.5408 63.7288C15.9324 69.7305 20.0338 75.1795 24.6873 80.2335C28.7887 84.7348 32.8113 89.2361 36.8338 93.6584C37.0704 93.8953 37.3859 94.0533 37.7803 94.5271Z" fill="#977777"/>
<path d="M53.3972 34.5099C53.4761 33.6412 53.4761 32.8515 53.5549 32.1408C53.7127 31.1142 53.7127 30.2455 52.8451 29.4558C52.5296 29.14 52.4507 28.5082 52.293 28.0344C52.0563 26.534 52.2141 26.2181 53.7127 25.4284C53.7916 25.3494 53.8704 25.2704 54.107 25.1125C54.1859 24.2438 54.1859 23.2172 54.2648 22.2696C54.3437 21.4799 54.1859 20.9271 53.6338 20.2953C52.7662 19.4267 52.7662 18.2421 52.8451 17.1365C52.9239 16.1889 53.4761 15.5571 54.3437 15.2413C54.6592 15.1623 54.9747 15.0833 55.369 15.0043C55.4479 14.2936 55.4479 13.6619 55.5268 13.0301C55.6056 12.4773 55.6056 12.0035 55.7634 11.4507C55.9211 10.661 56.3944 10.1082 57.1831 9.95026C58.1296 9.71335 59.0761 9.39748 60.0225 9.31851C62.1521 9.0816 64.2028 9.00262 66.3324 8.84468C68.8563 8.68674 71.4591 8.52881 73.9831 8.52881C78.9521 8.52881 84 8.76571 88.969 9.23953C89.9155 9.3185 90.7831 9.55542 91.6507 9.79233C92.6761 10.1082 93.307 10.8189 93.3859 11.9245C93.4648 12.8722 93.5437 13.8988 93.5437 14.7674C93.7014 14.9254 93.7014 15.0043 93.7803 15.0043C94.6479 15.2413 95.6732 15.4782 95.9887 16.4258C96.3042 17.6104 96.462 19.0318 95.5155 19.9795C94.6479 20.9271 94.569 21.9537 94.7268 23.0593C94.8056 23.691 94.8056 24.4018 94.8845 24.9546C94.9634 25.1125 95.0423 25.2704 95.1211 25.2704C95.7521 25.5073 96.3831 25.6653 96.5408 26.455C96.6986 27.4026 96.7775 28.5082 96.1465 29.14C94.9634 30.4035 95.2789 31.8249 95.4366 33.1674C95.4366 33.5623 95.5944 33.9571 95.6732 34.352C97.1718 34.5889 98.5127 34.9048 99.9324 35.1417C101.589 35.4576 103.245 35.9314 104.823 36.7211C109.239 39.0112 111.606 42.6438 111.685 47.6189C111.763 52.9099 111.685 58.1219 111.606 63.4129C111.527 72.4155 111.448 81.4181 111.448 90.4206C111.369 108.268 111.369 126.115 111.29 143.883C111.29 152.57 111.211 161.257 111.132 169.943C111.132 173.971 109.397 177.051 106.085 179.262C103.561 180.999 100.642 181.868 97.6451 182.421C93.4648 183.21 89.2845 183.605 85.1042 183.605C77.4535 183.684 69.724 183.684 62.0732 183.526C57.893 183.447 53.7127 182.973 49.6113 182.026C47.3239 181.473 45.1944 180.683 43.2225 179.499C40.2253 177.682 38.569 174.997 37.8592 171.602C37.7014 170.97 37.7803 170.259 37.7803 169.628C37.7014 151.938 37.7014 134.249 37.6225 116.56C37.5437 93.6584 37.3859 70.7571 37.307 47.8559C37.307 42.4859 39.831 38.7743 44.6423 36.4842C46.6141 35.5365 48.7437 35.1417 50.8732 34.8258C51.662 34.8258 52.4507 34.6679 53.3972 34.5099ZM54.5014 29.9297C54.4225 30.8773 54.3437 31.746 54.3437 32.5357C54.107 35.3786 54.4225 35.1417 51.5042 35.6945C49.769 36.0103 48.0338 36.4052 46.2986 36.879C44.2479 37.5108 42.4338 38.5374 41.0141 40.1958C39.0423 42.4859 38.0169 45.0129 38.0958 48.0928C38.2535 68.3091 38.3324 88.5254 38.4113 108.663C38.4902 128.958 38.569 149.332 38.6479 169.628C38.6479 173.971 40.5408 177.051 44.169 179.183C46.4563 180.525 48.9014 181.157 51.4254 181.71C55.1324 182.421 58.8394 182.816 62.5465 182.894C70.1183 182.973 77.6901 182.973 85.1831 182.973C89.2845 182.973 93.307 182.579 97.3296 181.789C100.09 181.315 102.851 180.525 105.296 179.025C108.608 176.972 110.344 174.05 110.344 170.022C110.344 156.44 110.501 142.778 110.58 129.195C110.659 117.034 110.659 104.872 110.659 92.7108C110.659 81.8919 110.738 71.152 110.817 60.3331C110.817 56.1477 110.817 51.8833 110.896 47.6979C110.896 45.6447 110.344 43.8284 109.318 42.091C107.82 39.564 105.611 37.8267 102.772 36.958C101.037 36.4052 99.2225 36.0893 97.4084 35.6945C96.6197 35.5365 95.6732 35.5365 94.8845 34.9048C94.7267 33.2464 94.569 31.588 94.4113 29.8507C95.7521 29.061 96.0676 27.9554 95.7521 26.6129C95.2 26.376 94.7268 26.1391 94.1746 25.8232C94.0958 25.0335 94.0169 24.2438 93.938 23.4541C93.8592 22.6644 93.938 21.8747 93.5437 21.085C91.0986 21.085 88.6535 21.243 86.1296 21.0061C86.3662 20.6902 86.4451 20.4533 86.524 20.4533C87.0761 20.3743 87.707 20.3743 88.2591 20.3743C89.9944 20.3743 91.6507 20.3743 93.3859 20.2953C94.569 20.2164 95.0423 19.7425 95.2 18.558C95.2789 18.0052 95.2789 17.5314 95.2 16.9786C95.1211 16.3468 94.569 15.952 93.938 16.031C93.7803 16.031 93.5437 16.1099 93.3859 16.1099C91.7296 16.3468 89.9944 16.6627 88.338 16.7417C83.6056 16.9786 78.8732 16.6627 74.1408 16.1889C73.5887 16.1099 73.0366 15.952 72.4845 15.794C72.4845 15.2413 72.8 15.1623 73.1944 15.1623C74.8507 15.3202 76.4282 15.4782 78.0845 15.6361C81.8704 15.952 85.6563 16.031 89.5211 15.794C90.5465 15.7151 91.5718 15.5571 92.5972 15.2413C92.9915 14.2146 92.7549 13.188 92.6761 12.2404C92.5183 10.8189 92.3606 10.582 91.0197 10.1872C90.5465 10.0292 89.9944 9.95027 89.4422 9.8713C87.8648 9.71336 86.2873 9.55542 84.7099 9.47645C79.7408 9.39748 74.7718 8.92366 69.7239 9.31851C66.569 9.55542 63.4141 9.63439 60.2592 9.8713C59.3127 9.95027 58.4451 10.1872 57.5775 10.4241C56.9465 10.582 56.5521 11.0558 56.4732 11.6876C56.3155 12.7932 56.2366 13.8988 56.3944 15.0043C56.7887 15.1623 57.1831 15.3202 57.4986 15.3992C59.1549 15.873 60.8113 16.3468 62.3887 16.8207C68.3831 18.637 74.4563 19.9005 80.6873 20.7692C81.6338 20.9271 82.6592 21.0061 83.6056 21.085C83.8423 21.085 84.1577 21.243 84 21.7168C83.6845 21.7168 83.2901 21.7958 82.9747 21.7958C77.2958 21.243 71.6958 20.2164 66.1746 18.7159C63.0986 17.8473 60.0225 16.9786 56.9465 16.031C56.2366 15.794 55.5268 15.6361 54.8169 15.794C54.2648 15.873 53.8704 16.2679 53.7916 16.8207C53.3972 18.558 54.107 19.7425 55.8422 20.2953C58.2873 21.085 60.8113 21.6378 63.3352 22.1116C67.4366 22.8224 71.538 23.1382 75.7183 23.2962C76.1127 23.2962 76.507 23.3752 76.9014 23.4541C77.0592 23.4541 77.138 23.691 77.2958 24.0069C73.431 24.1649 69.8028 23.691 66.1746 23.2962C62.5465 22.9013 58.9972 21.9537 55.2901 21.0061C55.2113 22.2696 55.1324 23.3752 55.0535 24.4807C55.0535 25.2704 54.738 25.9022 53.8704 26.0601C53.6338 26.1391 53.4761 26.297 53.3183 26.455C53.0817 28.6661 53.0817 28.6661 54.5014 29.9297Z" fill="#977777"/>
<path d="M106.715 88.6043C106.715 89.473 106.715 90.4996 106.715 91.6052C106.873 108.979 107.031 126.352 107.189 143.725C107.268 151.306 107.346 158.888 107.504 166.39C107.583 169.154 106.321 171.207 103.955 172.549C102.377 173.418 100.721 173.971 98.907 174.208C97.2507 174.445 95.5155 174.603 93.7803 174.603C90.4676 174.603 87.0761 174.445 83.7634 174.366C80.3718 174.287 76.9014 174.287 73.5099 174.287C70.7493 174.287 67.9888 174.287 65.2282 174.366C61.8366 174.445 58.3662 174.524 54.9747 174.603C52.7662 174.603 50.6366 174.366 48.5071 173.813C47.2451 173.497 45.9831 173.023 44.8789 172.391C42.5916 171.128 41.4085 169.075 41.4873 166.39C41.5662 159.914 41.6451 153.36 41.6451 146.884C41.8028 130.695 41.8817 114.506 42.0394 98.3176C42.0394 95.3957 42.1972 92.5528 42.1183 89.6309C42.1183 88.6043 42.4338 87.8146 43.2225 87.2618C44.169 86.5511 45.1944 85.9193 46.2197 85.4455C48.3493 84.3399 50.7155 83.9451 53.0028 83.5503C60.8902 82.2867 68.7775 81.576 76.7437 81.7339C82.5803 81.8919 88.4169 82.4447 94.1747 83.3133C95.831 83.5502 97.4085 83.8661 98.9859 84.261C100.642 84.6558 102.22 85.2876 103.718 86.1563C104.98 86.7091 105.927 87.4198 106.715 88.6043ZM42.7493 128.563C42.6704 135.907 42.5916 143.33 42.5127 150.675C42.4338 156.045 42.4338 161.494 42.355 166.864C42.355 168.917 43.2225 170.417 44.8 171.523C45.3521 171.918 45.9042 172.155 46.5352 172.47C47.9549 173.102 49.5324 173.418 51.1099 173.655C54.6592 174.129 58.2085 174.05 61.7577 173.892C70.1972 173.497 78.7155 173.497 87.1549 173.892C90.7831 174.05 94.4113 174.129 97.9606 173.655C99.9324 173.418 101.825 172.944 103.561 171.918C105.532 170.812 106.637 169.154 106.558 166.785C106.479 163.705 106.479 160.625 106.479 157.545C106.321 140.014 106.085 122.403 105.927 104.872C105.848 100.055 105.769 95.2378 105.848 90.4996C105.848 89.0781 105.296 88.1305 104.113 87.4198C103.403 87.0249 102.614 86.5511 101.825 86.2352C100.327 85.6824 98.8282 85.2086 97.3296 84.8927C91.2563 83.7872 85.1042 82.9185 78.9521 82.9185C76.8226 82.9185 74.7718 82.9185 72.6423 82.9185C65.4648 82.7605 58.3662 83.6292 51.2676 84.9717C48.9014 85.3666 46.6141 86.2352 44.4845 87.4987C43.4592 88.1305 42.9859 88.9992 42.9859 90.2627C42.9859 94.3691 42.907 98.3966 42.8282 102.503C42.8282 111.032 42.8282 119.797 42.7493 128.563Z" fill="#977777"/>
<path d="M92.9126 36.3261C92.7549 36.5631 92.5972 36.8789 92.3605 37.0369C90.862 38.0635 89.2845 38.8532 87.6282 39.406C81.2394 41.5382 74.6929 42.091 67.9887 41.0643C65.6225 40.6695 63.3352 40.1167 61.1267 39.406C59.5493 38.8532 58.1295 38.1425 56.7098 37.1948C56.3943 37.0369 56.2366 36.721 55.7634 36.0892C56.3944 36.2472 56.7098 36.2472 56.8676 36.3261C61.0479 39.0901 65.7803 40.0377 70.6704 40.5116C75.9549 40.9854 81.1605 40.5905 86.2873 39.0111C88.1014 38.4583 89.8366 37.7476 91.4929 36.721C91.8873 36.4841 92.2817 36.3261 92.676 36.0892C92.7549 36.1682 92.8338 36.2472 92.9126 36.3261Z" fill="#977777"/>
<path d="M93.3071 25.8231C93.0704 26.139 93.0704 26.3759 92.9127 26.4549C92.4394 26.6918 91.9662 26.8497 91.4141 27.0077C85.1831 28.9029 78.8732 30.0085 72.4056 29.6926C67.3578 29.4557 62.3887 28.5081 57.4986 27.0077C56.3944 26.6918 56.3944 26.6128 55.6057 25.8231C57.3409 25.9021 58.6817 26.6918 60.1803 27.0077C61.7578 27.3235 63.4141 27.7184 64.9916 28.0343C66.569 28.2712 68.0676 28.5081 69.6451 28.666C71.2225 28.824 72.8 28.9029 74.3775 28.9029C75.9549 28.9029 77.5324 28.824 79.1099 28.666C80.7662 28.5081 82.3437 28.2712 84 27.9553C85.5775 27.7184 87.0761 27.3235 88.6535 27.0077C90.1521 26.7708 91.5718 25.9811 93.3071 25.8231Z" fill="#977777"/>
<path d="M55.7634 30.3245C56.0789 30.3245 56.4733 30.3245 56.7888 30.4034C59.3916 31.1931 61.9944 31.8249 64.5972 32.2987C71.6958 33.7202 78.7944 33.5622 85.893 31.9828C87.9437 31.509 89.9944 30.9562 91.9662 30.4034C92.3606 30.3245 92.6761 30.3245 93.1493 30.4824C92.8338 30.6403 92.5972 30.9562 92.2817 31.0352C90.231 31.667 88.1014 32.2987 86.0507 32.7725C81.7916 33.7202 77.5324 34.273 73.1155 34.115C67.4366 33.8781 61.9155 32.8515 56.5521 31.0352C56.2366 30.9562 55.9211 30.6403 55.6057 30.4824C55.6845 30.4824 55.7634 30.4034 55.7634 30.3245Z" fill="#977777"/>
<path d="M57.5775 11.2137C60.1014 11.5296 62.3098 11.8455 64.5183 12.0034C66.7267 12.1614 68.9352 12.2404 71.2225 12.3193C73.431 12.3983 75.7183 12.3983 77.9267 12.3193C80.1352 12.2404 82.3436 12.0824 84.631 12.0034C86.8394 11.9245 88.969 11.2927 91.2563 11.4507C91.0197 11.6086 90.7831 11.8455 90.4676 11.9245C88.8113 12.2404 87.076 12.5562 85.4197 12.7142C80.6873 13.267 76.0338 13.267 71.3014 13.188C67.831 13.109 64.3606 12.8721 60.8901 12.3193C60.0225 12.1614 59.2338 12.0034 58.3662 11.8455C58.1296 11.9245 57.9718 11.6086 57.5775 11.2137Z" fill="#977777"/>
<path d="M78.4 48.1717C79.8986 49.83 81.3972 51.4094 82.738 53.0678C85.9718 56.9373 88.5746 61.2017 90.4676 65.8609C91.2563 67.6772 91.8084 69.5725 92.1239 71.5468C92.2817 72.4944 92.2817 73.3631 91.9662 74.3107C91.5718 75.4953 90.7831 76.206 89.5211 76.285C88.6535 76.3639 87.7859 76.206 86.9972 76.0481C85.9718 75.8111 85.1042 75.1794 84.3155 74.4687C83.1324 73.442 82.2648 72.2575 81.3972 70.994C79.662 68.23 78.5577 65.2292 77.6901 62.1493C76.8225 58.9905 76.1127 55.7528 75.6394 52.515C75.4817 51.7253 75.4028 50.8566 75.0873 50.0669C74.5352 50.1459 74.5352 50.4618 74.4563 50.7777C74.062 52.9888 73.6676 55.2 73.2732 57.4111C72.6422 60.6489 71.7746 63.8077 70.5127 66.8875C69.7239 68.7828 68.7775 70.5991 67.5944 72.2575C66.569 73.679 65.307 74.9425 63.6507 75.8111C62.7831 76.285 61.8366 76.5219 60.8113 76.5219C59.1549 76.4429 58.1296 75.6532 57.7352 73.9948C57.5775 73.3631 57.5775 72.6523 57.6563 72.0206C57.8141 70.1253 58.3662 68.309 59.076 66.4927C61.5211 60.333 65.2282 54.8841 69.7239 50.0669C70.1972 49.5141 70.7493 49.1193 71.3803 48.5665C71.0648 48.0927 70.5915 48.0927 70.1972 48.0927C67.9887 47.9348 65.938 47.382 63.8873 46.7502C59.4704 45.4867 55.7634 43.1176 52.8451 39.5639C52.1352 38.6953 51.5042 37.5897 50.9521 36.5631C50.4789 35.5365 51.1098 34.5888 52.2929 34.5099C52.7662 34.5099 53.1605 34.5888 53.476 35.0627C53.6338 35.2996 53.7915 35.4575 53.8704 35.7734C54.4225 37.1948 55.4479 38.1425 56.5521 39.0901C59.5493 41.6172 63.0197 43.0386 66.7268 43.9863C68.7775 44.539 70.8282 44.776 72.9577 44.776C75.4817 44.776 78.0845 44.9339 80.6084 44.4601C85.0253 43.5914 89.2056 42.1699 92.8338 39.2481C94.0958 38.2215 95.2 37.1948 95.831 35.6155C96.3042 34.5099 96.9352 34.273 97.8028 34.5099C98.5127 34.7468 98.907 35.2996 98.8281 36.0103C98.7493 36.4841 98.5915 36.879 98.3549 37.2738C97.2507 39.406 95.5943 41.0644 93.7014 42.5648C91.5718 44.3021 89.2056 45.5657 86.6028 46.3554C84.3155 47.0661 82.107 47.6978 79.7408 47.9348C79.3465 47.9348 78.8732 48.0927 78.4 48.1717ZM71.2225 53.0678C70.8281 52.9099 70.5915 53.0678 70.4338 53.3047C69.4084 54.6472 68.3831 56.0687 67.3577 57.4111C65.307 60.1751 63.8084 63.2549 62.6253 66.4927C62.231 67.4403 62.0732 68.5459 61.8366 69.5725C61.7577 70.1253 61.6789 70.836 62.3098 71.1519C62.9408 71.4678 63.4141 70.994 63.8873 70.6781C64.9127 69.9674 65.6225 68.9408 66.2535 67.7562C67.2 65.9399 67.831 63.9657 68.3042 61.9914C69.0141 58.9905 69.9605 55.9897 71.2225 53.0678C71.1436 52.9099 71.2225 52.8309 71.2225 52.6729C71.2225 52.6729 71.1437 52.673 71.1437 52.594C71.1437 52.8309 71.1436 52.9099 71.2225 53.0678ZM76.0338 49.988C76.507 52.594 76.9014 54.7262 77.3746 56.9373C78.0845 60.1751 78.8732 63.3339 80.1352 66.4137C80.9239 68.388 81.8704 70.2043 83.2113 71.9416C84.2366 73.2841 85.4986 74.4687 87.076 75.1794C87.7859 75.4953 88.5746 75.6532 89.3634 75.5742C90.3098 75.4953 91.0197 74.9425 91.1775 74.0738C91.3352 73.3631 91.4141 72.6524 91.3352 71.9416C91.1774 70.2833 90.7042 68.7039 90.0732 67.2034C88.4958 63.097 86.2873 59.2275 83.6845 55.7528C82.3437 53.9365 80.8451 52.2781 79.4253 50.6197C79.1887 50.3039 78.9521 49.83 78.1634 49.988C78.4 50.3828 78.6366 50.7777 78.9521 51.1725C80.1352 52.8309 81.3183 54.4893 82.5803 56.0687C84.9465 59.1485 86.7605 62.5442 88.1803 66.1768C88.4958 67.1245 88.8112 68.0721 89.0479 69.0197C89.2056 69.5725 89.2056 70.2043 89.1267 70.7571C88.969 72.0206 88.0225 72.5734 86.8394 72.0996C85.8141 71.7047 85.0253 70.994 84.3944 70.2043C83.4479 69.0197 82.738 67.6772 82.2648 66.2558C81.6338 64.5184 81.1605 62.7811 80.6873 60.9648C79.8986 58.1219 79.031 55.279 77.8479 52.594C77.2958 51.6463 77.0591 50.8566 76.0338 49.988ZM73.8253 49.988C73.3521 50.5408 73.0366 50.7777 72.9577 51.0146C72.4845 51.9622 72.0901 52.9099 71.6958 53.8575C70.5915 56.6214 69.7239 59.4644 69.0141 62.3073C68.5408 64.2815 67.9098 66.2558 66.9634 68.0721C66.3324 69.3356 65.5437 70.4412 64.3606 71.2309C63.8873 71.5468 63.3352 71.8626 62.7831 72.0206C61.9944 72.2575 61.2845 71.8626 61.0479 71.0729C60.8901 70.5202 60.8113 69.8884 60.8901 69.3356C61.0479 68.23 61.3634 67.1244 61.7577 66.0978C63.1774 62.3073 65.0704 58.8326 67.5155 55.5948C68.8563 53.8575 70.1183 52.1202 71.3803 50.3828C71.538 50.1459 71.9324 49.909 71.538 49.5931C71.3803 49.6721 71.1437 49.7511 71.0648 49.909C70.7493 50.1459 70.5127 50.4618 70.1972 50.7777C66.569 54.7262 63.4929 59.0695 61.2056 63.8867C60.2591 65.8609 59.3915 67.8352 58.9183 69.9674C58.6817 71.073 58.5239 72.1785 58.6028 73.2841C58.6817 74.8635 59.707 75.5742 61.2845 75.4953C62.5465 75.4163 63.5718 74.9425 64.5183 74.1528C65.6225 73.2841 66.569 72.2575 67.3577 71.1519C68.5408 69.3356 69.4873 67.3614 70.276 65.3871C71.538 62.0704 72.3267 58.5957 72.9577 55.121C73.2732 53.5416 73.5098 52.0412 73.8253 49.988ZM74.9296 47.382C79.031 47.4609 82.9746 46.6712 86.8394 45.3287C90.6253 43.9863 93.8591 41.7751 96.3831 38.6953C97.0141 37.9056 97.4873 36.9579 98.0394 36.0103C98.1972 35.6944 98.1183 35.3785 97.7239 35.2206C97.4084 35.0627 97.0929 35.1416 96.8563 35.4575C96.6986 35.7734 96.5408 36.0893 96.3831 36.3262C95.6732 37.2738 94.9634 38.2215 94.1746 39.0901C92.5183 40.6695 90.5465 41.8541 88.4169 42.8017C83.9211 44.776 79.2676 45.5657 74.4563 45.4867C69.7239 45.4867 65.1493 44.539 60.8901 42.5648C57.6563 40.9854 54.738 39.0901 53.0028 35.6944C52.9239 35.5365 52.7662 35.3785 52.6084 35.2206C52.4507 35.1416 52.2141 35.0627 52.0563 35.1416C51.8986 35.2996 51.662 35.5365 51.662 35.6944C51.5831 35.8524 51.7408 36.0893 51.8197 36.2472C52.3718 37.1159 52.7662 37.9845 53.3972 38.6953C55.9211 41.7751 59.0761 43.9073 62.862 45.2498C66.8056 46.6712 70.8282 47.382 74.9296 47.382ZM78.7943 52.8309C78.8732 53.0678 78.8732 53.3047 78.9521 53.5416C80.0563 56.3845 80.9239 59.3854 81.7127 62.3863C82.107 63.8077 82.5803 65.3081 83.2113 66.6506C83.6056 67.6772 84.2366 68.6249 84.8676 69.4935C85.3408 70.1253 85.9718 70.5991 86.6028 70.994C87.4704 71.5468 88.1014 71.0729 88.1014 70.0463C88.1014 69.4935 88.0225 69.0197 87.8648 68.4669C87.3915 67.1244 86.9972 65.703 86.4451 64.3605C84.7098 60.0961 81.9493 56.3845 78.7943 52.8309Z" fill="#977777"/>
<path d="M59.707 12.4773C59.6282 9.16054 59.5493 5.92276 59.4704 2.76397C60.1014 2.13221 60.7324 2.05324 61.3634 1.97427C64.1239 1.42148 66.9634 1.18456 69.8028 0.947655C76.0338 0.394865 82.2648 0.947657 88.4169 1.97427C89.0479 2.05324 89.6789 2.29015 90.231 2.44809C90.3098 2.76396 90.4676 3.00088 90.4676 3.15882C90.3887 6.23864 90.3098 9.31848 90.3098 12.4773C89.5211 13.267 88.5746 13.3459 87.6282 13.4249C84.3155 13.9777 81.0028 14.2146 77.6112 14.2936C72.6422 14.3725 67.5943 14.2146 62.7042 13.5039C61.6 13.267 60.6535 13.188 59.707 12.4773ZM60.4958 2.9219C60.1803 5.60688 60.338 10.582 60.8113 12.2404C61.3634 12.3983 61.9155 12.5562 62.4676 12.6352C65.0704 12.8721 67.6732 13.267 70.276 13.3459C75.0873 13.5039 79.8197 13.5039 84.631 13.0301C86.2084 12.8721 87.7859 12.7932 89.2845 12.1614C89.6 10.661 89.5211 9.16053 89.5211 7.6601C89.5211 6.0807 89.9155 4.58027 89.3634 2.9219C79.7408 1.10559 70.1183 1.10559 60.4958 2.9219Z" fill="#977777"/>
<path d="M61.6 3.55371C63.414 3.86959 65.1492 4.1065 66.9633 4.42238C68.6985 4.73826 70.5126 4.65929 72.2478 4.65929C74.0619 4.73826 75.876 4.65929 77.769 4.65929C79.5042 4.65929 81.3183 4.65929 83.0535 4.42238C84.8675 4.18547 86.6028 3.55371 88.7323 3.63268C88.338 3.94856 88.1802 4.26444 87.9436 4.26444C85.4985 4.8962 83.0535 5.37002 80.6084 5.52796C76.9014 5.76487 73.1154 5.76487 69.4084 5.52796C66.8845 5.37002 64.4394 4.8962 62.0732 4.34341C61.8366 4.26444 61.6788 4.1065 61.4422 3.94856C61.5211 3.79062 61.5211 3.63268 61.6 3.55371Z" fill="#977777"/>
<path d="M104.349 88.9991C104.192 89.7888 103.718 89.7888 103.403 89.9468C100.327 90.9734 97.2507 91.6841 94.0169 92.2369C89.6 92.9477 85.1831 93.4215 80.6873 93.7373C75.9549 94.0532 71.2225 93.9743 66.4901 93.5794C62.6253 93.2635 58.7606 92.8687 54.9747 92.2369C51.8986 91.7631 48.8225 91.0524 45.8254 90.1047C45.3521 89.9468 44.7211 89.9468 44.4845 89.315C44.7211 88.8412 45.1155 89.0781 45.5099 89.1571C47.4028 89.6309 49.2958 90.2627 51.1887 90.5785C54.2648 91.1313 57.4197 91.6841 60.4958 92.079C66.4901 92.8687 72.4845 93.1846 78.5577 92.8687C81.6338 92.7107 84.7098 92.4738 87.7859 92.1579C92.2028 91.6841 96.6197 90.9734 100.958 89.7888C101.746 89.5519 102.456 89.315 103.245 89.1571C103.639 89.0781 103.955 89.0781 104.349 88.9991Z" fill="#977777"/>
</svg>