<svg width="20" height="20" viewBox="0 0 20 20" fill="none" xmlns="http://www.w3.org/2000/svg">
<path d="M10.5488 15.1729L19.7738 5.92228C20.0759 5.6192 20.0754 5.12849 19.7723 4.82592C19.4692 4.52358 18.9782 4.52436 18.6759 4.82748L9.99993 13.5274L1.32401 4.82717C1.02167 4.52408 0.53101 4.5233 0.227884 4.8256C0.0759315 4.97728 -4.58016e-05 5.17599 -4.58103e-05 5.3747C-4.58189e-05 5.57291 0.0754241 5.77084 0.226322 5.92224L9.45111 15.1729C9.59634 15.3188 9.794 15.4008 9.99993 15.4008C10.2059 15.4008 10.4033 15.3186 10.5488 15.1729Z" fill="#977777"/>
<defs>
<rect width="20" height="20" fill="white" transform="translate(20) rotate(90)"/>
</defs>
</svg>